<?xml version="1.0" encoding="UTF-8" standalone="no"?>
<!-- Created with Inkscape (http://www.inkscape.org/) -->

<svg
   xmlns:dc="http://purl.org/dc/elements/1.1/"
   xmlns:cc="http://creativecommons.org/ns#"
   xmlns:rdf="http://www.w3.org/1999/02/22-rdf-syntax-ns#"
   xmlns:svg="http://www.w3.org/2000/svg"
   xmlns="http://www.w3.org/2000/svg"
   xmlns:sodipodi="http://sodipodi.sourceforge.net/DTD/sodipodi-0.dtd"
   xmlns:inkscape="http://www.inkscape.org/namespaces/inkscape"
   width="640"
   height="400"
   id="svg2"
   version="1.1"
   inkscape:version="0.48.3.1 r9886"
   sodipodi:docname="im7.svg"
   inkscape:export-filename="/home/ivanv/Videos/Global Survival/im7.png"
   inkscape:export-xdpi="90"
   inkscape:export-ydpi="90">
  <defs
     id="defs4" />
  <sodipodi:namedview
     id="base"
     pagecolor="#ffffff"
     bordercolor="#666666"
     borderopacity="1.0"
     inkscape:pageopacity="0.0"
     inkscape:pageshadow="2"
     inkscape:zoom="1.225"
     inkscape:cx="320"
     inkscape:cy="192.02"
     inkscape:document-units="px"
     inkscape:current-layer="layer1"
     showgrid="false"
     inkscape:window-width="1280"
     inkscape:window-height="975"
     inkscape:window-x="0"
     inkscape:window-y="25"
     inkscape:window-maximized="1" />
  <metadata
     id="metadata7">
    <rdf:RDF>
      <cc:Work
         rdf:about="">
        <dc:format>image/svg+xml</dc:format>
        <dc:type
           rdf:resource="http://purl.org/dc/dcmitype/StillImage" />
        <dc:title></dc:title>
      </cc:Work>
    </rdf:RDF>
  </metadata>
  <g
     inkscape:label="Layer 1"
     inkscape:groupmode="layer"
     id="layer1"
     transform="translate(0,-652.36218)">
    <rect
       style="fill:#ffffff;fill-opacity:1;stroke:#805400;stroke-width:0;stroke-miterlimit:4;stroke-opacity:1;stroke-dasharray:none"
       id="rect3940"
       width="655.51019"
       height="407.34692"
       x="-8.1632662"
       y="648.28058" />
    <path
       style="fill:#ffff51;fill-opacity:1;stroke:#ffa86e;stroke-width:4;stroke-miterlimit:4;stroke-opacity:1;stroke-dasharray:none"
       d="m 515.625,663.36218 0.4375,1.78125 -6.21875,15.125 6.375,10.1875 -1.28125,16.3125 9.21875,7.6875 3.84375,15.90625 11.15625,4.46875 8.5625,13.9375 11.96875,0.84375 12.4375,10.59375 11.65625,-2.90625 15.125,6.21875 10.1875,-6.375 16.3125,1.28125 4.59375,-5.5 0,-89.5625 -114.375,0 z"
       id="path3811"
       inkscape:connector-curvature="0" />
    <rect
       style="fill:#cfcfff;fill-opacity:1;stroke:#552200;stroke-width:0;stroke-miterlimit:4;stroke-opacity:1;stroke-dasharray:none"
       id="rect6059"
       width="536.32648"
       height="222.04082"
       x="-541.22449"
       y="589.50494" />
    <path
       sodipodi:type="arc"
       style="fill:#bbbbff;fill-opacity:1;stroke:#01ff00;stroke-width:0;stroke-miterlimit:4;stroke-opacity:1;stroke-dasharray:none"
       id="path3827"
       sodipodi:cx="254"
       sodipodi:cy="474"
       sodipodi:rx="74"
       sodipodi:ry="29"
       d="m 328,474 c 0,16.01626 -33.13093,29 -74,29 -40.86907,0 -74,-12.98374 -74,-29 0,-16.01626 33.13093,-29 74,-29 40.86907,0 74,12.98374 74,29 z"
       transform="matrix(0.56081081,0,0,0.68965517,406.05405,404.46563)" />
    <path
       sodipodi:type="arc"
       style="fill:#aaaaff;fill-opacity:1;stroke:#01ff00;stroke-width:0;stroke-miterlimit:4;stroke-opacity:1;stroke-dasharray:none"
       id="path3825"
       sodipodi:cx="183.5"
       sodipodi:cy="447"
       sodipodi:rx="23.5"
       sodipodi:ry="36"
       d="m 207,447 c 0,19.88225 -10.52131,36 -23.5,36 -12.97869,0 -23.5,-16.11775 -23.5,-36 0,-19.88225 10.52131,-36 23.5,-36 12.97869,0 23.5,16.11775 23.5,36 z"
       transform="matrix(1.4680851,0,0,0.47222222,16.106383,489.27885)" />
    <text
       xml:space="preserve"
       style="font-size:20px;font-style:oblique;font-variant:normal;font-weight:bold;font-stretch:normal;text-align:start;line-height:125%;letter-spacing:0px;word-spacing:0px;writing-mode:lr-tb;text-anchor:start;fill:#000000;fill-opacity:1;stroke:none;font-family:Sawasdee;-inkscape-font-specification:Sawasdee Bold Oblique"
       x="-533.35107"
       y="646.20819"
       id="text3799"
       sodipodi:linespacing="125%"
       transform="scale(0.98623483,1.0139573)"><tspan
         sodipodi:role="line"
         x="-533.35107"
         y="646.20819"
         id="tspan6057">They forgot about old days of bossing around inside</tspan><tspan
         sodipodi:role="line"
         x="-533.35107"
         y="671.20819"
         id="tspan6119">strong hierarchies, they let each other to have influence</tspan><tspan
         sodipodi:role="line"
         x="-533.35107"
         y="696.20819"
         id="tspan6121">on their own production proccesses by exposing it</tspan><tspan
         sodipodi:role="line"
         x="-533.35107"
         y="721.20819"
         id="tspan6123">openly between themselves.</tspan><tspan
         sodipodi:role="line"
         x="-533.35107"
         y="746.20819"
         id="tspan6125" /><tspan
         sodipodi:role="line"
         x="-533.35107"
         y="771.20819"
         id="tspan6127" /></text>
    <path
       style="fill:none;stroke:#0b9715;stroke-width:6.73962069;stroke-linecap:butt;stroke-linejoin:miter;stroke-miterlimit:4;stroke-opacity:1;stroke-dasharray:none"
       d="m 560.85994,966.42774 c 54.20694,30.77555 -3.90492,53.22716 14.6759,96.49866"
       id="path3834"
       inkscape:connector-curvature="0"
       sodipodi:nodetypes="cc" />
    <path
       sodipodi:type="spiral"
       style="fill:none;stroke:#0b9715;stroke-width:4.88149643;stroke-linecap:butt;stroke-linejoin:miter;stroke-miterlimit:4;stroke-opacity:1;stroke-dasharray:none"
       id="path3836"
       sodipodi:cx="400"
       sodipodi:cy="291"
       sodipodi:expansion="1"
       sodipodi:revolution="1"
       sodipodi:radius="24.413111"
       sodipodi:argument="-16.318689"
       sodipodi:t0="0"
       d="m 400,291 c -3.0083,2.10581 -4.32279,-3.0162 -3.5,-5 2.2297,-5.37597 9.55519,-5.01072 13.5,-2 7.05634,5.38546 6.12602,15.97256 0.5,22 -8.25641,8.8455 -22.48318,7.29149 -30.5,-1"
       transform="matrix(0.63906696,0.15337766,-0.25221554,0.52017693,410.30494,802.83643)" />
    <path
       sodipodi:type="star"
       style="fill:#ff9955;fill-opacity:1;stroke:#ffa86e;stroke-width:0;stroke-miterlimit:4;stroke-opacity:1;stroke-dasharray:none"
       id="path3838"
       sodipodi:sides="5"
       sodipodi:cx="336"
       sodipodi:cy="279"
       sodipodi:r1="5.4349222"
       sodipodi:r2="7.7740107"
       sodipodi:arg1="0.98230353"
       sodipodi:arg2="-0.2587615"
       inkscape:flatsided="false"
       inkscape:rounded="2"
       inkscape:randomized="0"
       d="m 339.01697,283.52065 c 12.26904,9.99608 20.31127,-5.87861 4.49823,-6.50989 -25.08426,-1.0014 -1.8158,-17.15435 -10.8823,6.25551 -5.71549,14.7575 11.86742,17.50057 7.5813,2.2664 -6.79908,-24.166 15.75365,-7.02792 -9.31215,-8.41662 -15.80141,-0.87544 -12.9768,16.69456 0.18728,7.9106 20.88219,-13.93401 11.55208,12.81086 5.12706,-11.45726 -4.05031,-15.29856 -19.88752,-7.18277 -7.46556,2.62262 19.70499,15.5543 -8.61406,14.94546 12.48086,1.33564 13.29818,-8.57959 0.68563,-21.13376 -4.80125,-6.28973 -8.70384,23.54709 -16.87587,-3.57406 2.58653,12.28273 z"
       transform="matrix(3.472548,0.45956606,0.37107755,-3.1115295,-725.66977,1675.3024)" />
    <path
       style="fill:#ff0000;stroke:#000000;stroke-width:3;stroke-linecap:butt;stroke-linejoin:miter;stroke-miterlimit:4;stroke-opacity:1;stroke-dasharray:none"
       d="m 37.22449,924.21932 5,-40 11,15 2,-15 16,14 -1,-13 16,12 0,-12 13,12 -2,-35 14,-4 6,63 z"
       id="path3940"
       inkscape:connector-curvature="0"
       sodipodi:nodetypes="ccccccccccccc" />
    <path
       inkscape:connector-curvature="0"
       id="path3961"
       d="m 376.63027,960.81379 0,12.6193 7.06692,13.96155 0,0"
       style="fill:none;stroke:#000000;stroke-width:1.00595951;stroke-linecap:butt;stroke-linejoin:miter;stroke-miterlimit:4;stroke-opacity:1;stroke-dasharray:none" />
    <path
       inkscape:connector-curvature="0"
       id="path3963"
       d="m 376.63027,973.70149 -6.36021,13.42485"
       style="fill:none;stroke:#000000;stroke-width:1.00595951;stroke-linecap:butt;stroke-linejoin:miter;stroke-miterlimit:4;stroke-opacity:1;stroke-dasharray:none" />
    <path
       inkscape:connector-curvature="0"
       id="path3965"
       d="m 385.11056,965.37819 -16.96058,0.2685"
       style="fill:none;stroke:#000000;stroke-width:1.00595951;stroke-linecap:butt;stroke-linejoin:miter;stroke-miterlimit:4;stroke-opacity:1;stroke-dasharray:none" />
    <path
       sodipodi:type="arc"
       style="fill:#ffeeaa;fill-opacity:1;stroke:#000000;stroke-width:1.69399428;stroke-linecap:butt;stroke-linejoin:miter;stroke-miterlimit:4;stroke-opacity:1;stroke-dasharray:none"
       id="path3967"
       sodipodi:cx="115.5"
       sodipodi:cy="252"
       sodipodi:rx="22.5"
       sodipodi:ry="20"
       d="m 138,252 a 22.5,20 0 1 1 -45,0 22.5,20 0 1 1 45,0 z"
       transform="matrix(-0.53110234,0,0,0.66398608,437.35173,781.28385)" />
    <path
       sodipodi:type="arc"
       style="fill:none;stroke-width:4;stroke-miterlimit:4;stroke-dasharray:none"
       id="path3969"
       sodipodi:cx="129"
       sodipodi:cy="229.5"
       sodipodi:rx="4"
       sodipodi:ry="3.5"
       d="m 133,229.5 a 4,3.5 0 1 1 -8,0 4,3.5 0 1 1 8,0 z"
       transform="matrix(-0.62094485,0,0,0.66398608,461.48233,792.41927)" />
    <path
       sodipodi:type="arc"
       style="fill:none;stroke-width:4;stroke-miterlimit:4;stroke-dasharray:none"
       id="path3971"
       sodipodi:cx="145"
       sodipodi:cy="226.5"
       sodipodi:rx="3"
       sodipodi:ry="4.5"
       d="m 148,226.5 a 3,4.5 0 1 1 -6,0 3,4.5 0 1 1 6,0 z"
       transform="matrix(-0.62094485,0,0,0.66398608,461.48233,792.41927)" />
    <path
       transform="matrix(-0.30680914,0,0,0.44692457,393.17793,892.94802)"
       d="m 49,119 a 6.5,7 0 1 1 -13,0 6.5,7 0 1 1 13,0 z"
       sodipodi:ry="7"
       sodipodi:rx="6.5"
       sodipodi:cy="119"
       sodipodi:cx="42.5"
       id="path3973"
       style="fill:#805400;fill-opacity:1;stroke:#805400;stroke-width:6.93608999;stroke-miterlimit:4;stroke-opacity:1;stroke-dasharray:none"
       sodipodi:type="arc" />
    <path
       sodipodi:type="arc"
       style="fill:#805400;fill-opacity:1;stroke:#008000;stroke-width:0;stroke-miterlimit:4;stroke-dasharray:none"
       id="path3975"
       sodipodi:cx="42.5"
       sodipodi:cy="119"
       sodipodi:rx="6.5"
       sodipodi:ry="7"
       d="m 49,119 a 6.5,7 0 1 1 -13,0 6.5,7 0 1 1 13,0 z"
       transform="matrix(-0.3589641,0,0,0.45128351,387.63272,892.42929)" />
    <path
       style="fill:none;stroke:#000000;stroke-width:0.86697787;stroke-linecap:butt;stroke-linejoin:miter;stroke-miterlimit:4;stroke-opacity:1;stroke-dasharray:none"
       d="m 374.66032,954.951 c -5.86148,-4.13062 0.65541,3.33889 1.38806,-12.23482"
       id="path3977"
       inkscape:connector-curvature="0"
       sodipodi:nodetypes="cc" />
    <path
       style="fill:none;stroke:#000000;stroke-width:1;stroke-linecap:butt;stroke-linejoin:miter;stroke-miterlimit:4;stroke-opacity:1;stroke-dasharray:none"
       d="m 369.51332,957.14939 c 0.49199,0 1.47599,-0.5262 1.47599,0 0,0.5261 -1.82389,-0.3721 -1.47599,0 0.45444,0.486 1.82884,0.3946 2.58299,0.3946 0.123,0 0.25898,-0.059 0.369,0 0.15558,0.083 0.21341,0.3114 0.36899,0.3946 0.22003,0.1177 0.51798,-0.1176 0.738,0 0.15559,0.083 0.21342,0.3114 0.369,0.3946 0.2952,0.1579 0.8118,-0.1578 1.107,0 0.15558,0.083 0.21341,0.3115 0.36899,0.3947 0.2952,0.1578 0.8118,-0.1579 1.107,0 0.15559,0.083 0.21341,0.3114 0.369,0.3946 0.11001,0.059 0.246,0 0.369,0 0.123,0 0.28202,0.093 0.369,0 0.087,-0.093 -0.087,-0.3016 0,-0.3946 0.1845,-0.1973 0.92249,0.1973 1.10699,0 0.087,-0.093 -0.087,-0.3016 0,-0.3947 0.087,-0.093 0.28203,0.093 0.369,0 0.087,-0.093 -0.087,-0.3016 0,-0.3946 0.087,-0.093 0.25899,0.059 0.369,0 0.15558,-0.083 0.21341,-0.3114 0.369,-0.3946 0.11001,-0.059 0.28202,0.093 0.369,0 0.087,-0.093 -0.055,-0.277 0,-0.3946 0.0778,-0.1664 0.246,-0.2631 0.369,-0.3947 0.12299,-0.1315 0.21341,-0.3114 0.36899,-0.3946 0.50899,-0.2722 0.33006,0.4779 0.738,-0.3946 0.055,-0.1177 -0.055,-0.277 0,-0.3947 0.0778,-0.1663 0.29121,-0.2282 0.369,-0.3946 0.055,-0.1176 -0.087,-0.3016 0,-0.3946 0.087,-0.093 0.28203,0.093 0.369,0 0.087,-0.093 -0.055,-0.277 0,-0.3946 0.0778,-0.1664 0.29121,-0.2283 0.369,-0.3947 0.11001,-0.2353 -0.17395,-0.6032 0,-0.7892 0.087,-0.093 0.28202,0.093 0.369,0 0.087,-0.093 -0.055,-0.277 0,-0.3947 0.0778,-0.1663 0.2912,-0.2282 0.36899,-0.3946 0.11002,-0.2353 -0.17394,-0.6032 0,-0.7892 0.087,-0.093 0.28203,0.093 0.369,0 0.087,-0.093 -0.087,-0.3017 0,-0.3947 0.087,-0.093 0.28203,0.093 0.369,0 0.087,-0.093 0,-0.2631 0,-0.3946 0,-0.1315 0,-0.2631 0,-0.3946"
       id="path4957"
       inkscape:connector-curvature="0" />
    <path
       style="fill:none;stroke:#000000;stroke-width:0.96034801;stroke-linecap:butt;stroke-linejoin:miter;stroke-miterlimit:4;stroke-opacity:1;stroke-dasharray:none"
       d="m 285.59126,970.06962 0,11.6286 -6.98929,12.86552 0,0"
       id="path2987"
       inkscape:connector-curvature="0" />
    <path
       style="fill:none;stroke:#000000;stroke-width:0.96034801;stroke-linecap:butt;stroke-linejoin:miter;stroke-miterlimit:4;stroke-opacity:1;stroke-dasharray:none"
       d="m 285.59126,981.94562 6.29037,12.37082"
       id="path2989"
       inkscape:connector-curvature="0" />
    <path
       style="fill:none;stroke:#000000;stroke-width:0.96034801;stroke-linecap:butt;stroke-linejoin:miter;stroke-miterlimit:4;stroke-opacity:1;stroke-dasharray:none"
       d="m 277.20411,974.27572 16.7743,0.2474"
       id="path2991"
       inkscape:connector-curvature="0" />
    <path
       transform="matrix(0.52526906,0,0,0.61185939,224.72937,803.88158)"
       d="m 138,252 a 22.5,20 0 1 1 -45,0 22.5,20 0 1 1 45,0 z"
       sodipodi:ry="20"
       sodipodi:rx="22.5"
       sodipodi:cy="252"
       sodipodi:cx="115.5"
       id="path3787"
       style="fill:#ffdbdb;fill-opacity:1;stroke:#000000;stroke-width:1.69399428;stroke-linecap:butt;stroke-linejoin:miter;stroke-miterlimit:4;stroke-opacity:1;stroke-dasharray:none"
       sodipodi:type="arc" />
    <path
       transform="matrix(0.61412479,0,0,0.61185939,201.67117,814.89506)"
       d="m 133,229.5 a 4,3.5 0 1 1 -8,0 4,3.5 0 1 1 8,0 z"
       sodipodi:ry="3.5"
       sodipodi:rx="4"
       sodipodi:cy="229.5"
       sodipodi:cx="129"
       id="path3789"
       style="fill:none;stroke-width:4;stroke-miterlimit:4;stroke-dasharray:none"
       sodipodi:type="arc" />
    <path
       transform="matrix(0.61412479,0,0,0.61185939,201.67117,814.89506)"
       d="m 148,226.5 a 3,4.5 0 1 1 -6,0 3,4.5 0 1 1 6,0 z"
       sodipodi:ry="4.5"
       sodipodi:rx="3"
       sodipodi:cy="226.5"
       sodipodi:cx="145"
       id="path3791"
       style="fill:none;stroke-width:4;stroke-miterlimit:4;stroke-dasharray:none"
       sodipodi:type="arc" />
    <path
       sodipodi:type="arc"
       style="fill:#0000ff;stroke:#0000ff;stroke-width:6.93608999;stroke-miterlimit:4;stroke-dasharray:none"
       id="path3793"
       sodipodi:cx="42.5"
       sodipodi:cy="119"
       sodipodi:rx="6.5"
       sodipodi:ry="7"
       d="m 49,119 a 6.5,7 0 1 1 -13,0 6.5,7 0 1 1 13,0 z"
       transform="matrix(0.30343937,0,0,0.41183843,269.22535,907.53173)" />
    <path
       transform="matrix(0.35502149,0,0,0.4158552,274.70967,907.05372)"
       d="m 49,119 a 6.5,7 0 1 1 -13,0 6.5,7 0 1 1 13,0 z"
       sodipodi:ry="7"
       sodipodi:rx="6.5"
       sodipodi:cy="119"
       sodipodi:cx="42.5"
       id="path3795"
       style="fill:#0000ff;stroke:#0000ff;stroke-width:0;stroke-miterlimit:4;stroke-dasharray:none"
       sodipodi:type="arc" />
    <path
       sodipodi:nodetypes="cc"
       inkscape:connector-curvature="0"
       id="path3797"
       d="m 287.53958,964.66722 c 5.42507,-5.5088 -1.91892,-2.7381 -1.37281,-11.2744"
       style="fill:none;stroke:#000000;stroke-width:0.82766789;stroke-linecap:butt;stroke-linejoin:miter;stroke-miterlimit:4;stroke-opacity:1;stroke-dasharray:none" />
    <path
       style="fill:none;stroke:#000000;stroke-width:1.12447202;stroke-linecap:butt;stroke-linejoin:miter;stroke-miterlimit:4;stroke-opacity:1;stroke-dasharray:none"
       d="m 292.98221,965.30773 c -6.27026,3.6577 -12.53555,1.8535 -17.04777,-5.4822 l -0.64072,-1.8533"
       id="path5287"
       inkscape:connector-curvature="0"
       sodipodi:nodetypes="ccc" />
    <path
       inkscape:connector-curvature="0"
       id="path3961-3"
       d="m 328.71511,982.25661 0,11.61333"
       style="fill:none;stroke:#000000;stroke-width:0.85205477;stroke-linecap:butt;stroke-linejoin:miter;stroke-miterlimit:4;stroke-opacity:1;stroke-dasharray:none"
       sodipodi:nodetypes="cc" />
    <path
       inkscape:connector-curvature="0"
       id="path3965-3"
       d="m 322.10413,986.45724 13.22197,0.2471"
       style="fill:none;stroke:#000000;stroke-width:0.85205477;stroke-linecap:butt;stroke-linejoin:miter;stroke-miterlimit:4;stroke-opacity:1;stroke-dasharray:none" />
    <path
       sodipodi:type="arc"
       style="fill:#bc6b33;fill-opacity:1;stroke:#000000;stroke-width:1.69399428;stroke-linecap:butt;stroke-linejoin:miter;stroke-miterlimit:4;stroke-opacity:1;stroke-dasharray:none"
       id="path3967-1"
       sodipodi:cx="115.5"
       sodipodi:cy="252"
       sodipodi:rx="22.5"
       sodipodi:ry="20"
       d="m 138,252 a 22.5,20 0 1 1 -45,0 22.5,20 0 1 1 45,0 z"
       transform="matrix(0.41403217,0,0,0.61105055,280.74201,816.28819)" />
    <path
       sodipodi:type="arc"
       style="fill:none;stroke-width:4;stroke-miterlimit:4;stroke-dasharray:none"
       id="path3969-3"
       sodipodi:cx="129"
       sodipodi:cy="229.5"
       sodipodi:rx="4"
       sodipodi:ry="3.5"
       d="m 133,229.5 a 4,3.5 0 1 1 -8,0 4,3.5 0 1 1 8,0 z"
       transform="matrix(0.48407082,0,0,0.61105055,263.51248,827.68577)" />
    <path
       sodipodi:type="arc"
       style="fill:none;stroke-width:4;stroke-miterlimit:4;stroke-dasharray:none"
       id="path3971-7"
       sodipodi:cx="145"
       sodipodi:cy="226.5"
       sodipodi:rx="3"
       sodipodi:ry="4.5"
       d="m 148,226.5 a 3,4.5 0 1 1 -6,0 3,4.5 0 1 1 6,0 z"
       transform="matrix(0.48407082,0,0,0.61105055,262.56688,827.2871)" />
    <path
       transform="matrix(0.23917962,0,0,0.41129402,316.76064,920.19998)"
       d="m 49,119 a 6.5,7 0 1 1 -13,0 6.5,7 0 1 1 13,0 z"
       sodipodi:ry="7"
       sodipodi:rx="6.5"
       sodipodi:cy="119"
       sodipodi:cx="42.5"
       id="path3973-6"
       style="fill:#71ff51;fill-opacity:1;stroke:#71ff51;stroke-width:6.93608999;stroke-miterlimit:4;stroke-opacity:1;stroke-dasharray:none"
       sodipodi:type="arc" />
    <path
       sodipodi:type="arc"
       style="fill:#71ff51;fill-opacity:1;stroke:#000080;stroke-width:0;stroke-miterlimit:4;stroke-dasharray:none"
       id="path3975-1"
       sodipodi:cx="42.5"
       sodipodi:cy="119"
       sodipodi:rx="6.5"
       sodipodi:ry="7"
       d="m 49,119 a 6.5,7 0 1 1 -13,0 6.5,7 0 1 1 13,0 z"
       transform="matrix(0.27983814,0,0,0.41530544,321.08352,919.72261)" />
    <path
       style="fill:none;stroke:#000000;stroke-width:0.73433638;stroke-linecap:butt;stroke-linejoin:miter;stroke-miterlimit:4;stroke-opacity:1;stroke-dasharray:none"
       d="m 330.85872,974.30978 c 3.82647,-3.00396 -0.71357,1.47804 -0.74439,-8.30935"
       id="path3977-0"
       inkscape:connector-curvature="0"
       sodipodi:nodetypes="cc" />
    <path
       sodipodi:type="star"
       style="fill:#249800;fill-opacity:1;stroke:#0000ff;stroke-width:0;stroke-miterlimit:4;stroke-opacity:1;stroke-dasharray:none"
       id="path5353"
       sodipodi:sides="3"
       sodipodi:cx="365.01755"
       sodipodi:cy="299.75662"
       sodipodi:r1="6.5812774"
       sodipodi:r2="4.6010656"
       sodipodi:arg1="1.2074032"
       sodipodi:arg2="2.2546008"
       inkscape:flatsided="true"
       inkscape:rounded="2"
       inkscape:randomized="0"
       d="m 367.35685,305.90812 c -21.3094,8.10357 -12.4731,15.30492 -8.8363,-7.20135 3.6368,-22.50627 -7.01791,-18.45448 10.6547,-4.05179 17.6726,14.4027 19.491,3.14956 -1.8184,11.25314 z"
       transform="matrix(-0.72875418,0.32682484,0.27685525,0.86028696,511.75298,626.46271)"
       inkscape:transform-center-x="-2.8438152"
       inkscape:transform-center-y="-3.9908469" />
    <path
       style="fill:none;stroke:#000000;stroke-width:0.791619px;stroke-linecap:butt;stroke-linejoin:miter;stroke-opacity:1"
       d="m 332.21686,977.70078 c -2.79821,3.7313 -4.7293,2.5557 -6.00603,-0.202"
       id="path5718"
       inkscape:connector-curvature="0"
       sodipodi:nodetypes="cc" />
    <path
       inkscape:connector-curvature="0"
       id="path3961-8"
       d="m 439.46142,1124.1949 0,13.5891 6.82255,15.0344 0,0"
       style="fill:none;stroke:#000000;stroke-width:1.02568948;stroke-linecap:butt;stroke-linejoin:miter;stroke-miterlimit:4;stroke-opacity:1;stroke-dasharray:none" />
    <path
       inkscape:connector-curvature="0"
       id="path3963-3"
       d="m 439.46142,1138.0729 -6.14028,14.4565"
       style="fill:none;stroke:#000000;stroke-width:1.02568948;stroke-linecap:butt;stroke-linejoin:miter;stroke-miterlimit:4;stroke-opacity:1;stroke-dasharray:none" />
    <path
       inkscape:connector-curvature="0"
       id="path3965-8"
       d="m 447.64846,1129.11 -16.37408,0.2892"
       style="fill:none;stroke:#000000;stroke-width:1.02568948;stroke-linecap:butt;stroke-linejoin:miter;stroke-miterlimit:4;stroke-opacity:1;stroke-dasharray:none" />
    <path
       sodipodi:type="arc"
       style="fill:#deaa87;fill-opacity:1;stroke:#000000;stroke-width:1.69399428;stroke-linecap:butt;stroke-linejoin:miter;stroke-miterlimit:4;stroke-opacity:1;stroke-dasharray:none"
       id="path3967-8"
       sodipodi:cx="115.5"
       sodipodi:cy="252"
       sodipodi:rx="22.5"
       sodipodi:ry="20"
       d="m 138,252 a 22.5,20 0 1 1 -45,0 22.5,20 0 1 1 45,0 z"
       transform="matrix(-0.51273686,0,0,0.71501225,498.87124,929.98931)" />
    <path
       sodipodi:type="arc"
       style="fill:none;stroke-width:4;stroke-miterlimit:4;stroke-dasharray:none"
       id="path3969-8"
       sodipodi:cx="129"
       sodipodi:cy="229.5"
       sodipodi:rx="4"
       sodipodi:ry="3.5"
       d="m 133,229.5 a 4,3.5 0 1 1 -8,0 4,3.5 0 1 1 8,0 z"
       transform="matrix(-0.59947258,0,0,0.71501225,521.3793,942.85953)" />
    <path
       sodipodi:type="arc"
       style="fill:none;stroke-width:4;stroke-miterlimit:4;stroke-dasharray:none"
       id="path3971-2"
       sodipodi:cx="145"
       sodipodi:cy="226.5"
       sodipodi:rx="3"
       sodipodi:ry="4.5"
       d="m 148,226.5 a 3,4.5 0 1 1 -6,0 3,4.5 0 1 1 6,0 z"
       transform="matrix(-0.59947258,0,0,0.71501225,521.3793,942.85953)" />
    <path
       transform="matrix(-0.29619967,0,0,0.48126994,455.43686,1051.1137)"
       d="m 49,119 a 6.5,7 0 1 1 -13,0 6.5,7 0 1 1 13,0 z"
       sodipodi:ry="7"
       sodipodi:rx="6.5"
       sodipodi:cy="119"
       sodipodi:cx="42.5"
       id="path3973-0"
       style="fill:#552200;stroke:#552200;stroke-width:6.93608999;stroke-miterlimit:4;stroke-dasharray:none"
       sodipodi:type="arc" />
    <path
       sodipodi:type="arc"
       style="fill:#552200;stroke:#008000;stroke-width:0;stroke-miterlimit:4;stroke-dasharray:none"
       id="path3975-0"
       sodipodi:cx="42.5"
       sodipodi:cy="119"
       sodipodi:rx="6.5"
       sodipodi:ry="7"
       d="m 49,119 a 6.5,7 0 1 1 -13,0 6.5,7 0 1 1 13,0 z"
       transform="matrix(-0.3465511,0,0,0.48596384,450.08341,1050.5551)" />
    <path
       style="fill:none;stroke:#000000;stroke-width:0.99698132;stroke-linecap:butt;stroke-linejoin:miter;stroke-miterlimit:4;stroke-opacity:1;stroke-dasharray:none"
       d="m 438.20764,1117.6697 c -5.88061,-4.6928 0.80486,-1.6722 0.82633,-13.9095"
       id="path3977-2"
       inkscape:connector-curvature="0"
       sodipodi:nodetypes="cc" />
    <text
       xml:space="preserve"
       style="font-size:40px;font-style:normal;font-weight:normal;line-height:125%;letter-spacing:0px;word-spacing:0px;fill:#000000;fill-opacity:1;stroke:none;font-family:Sans"
       x="218.77551"
       y="152.65306"
       id="text6129"
       sodipodi:linespacing="125%"
       transform="translate(0,652.36218)"><tspan
         sodipodi:role="line"
         id="tspan6131" /></text>
    <path
       style="fill:#a7d64c;fill-opacity:1;stroke:#552200;stroke-width:0;stroke-miterlimit:4;stroke-opacity:1;stroke-dasharray:none"
       id="path3075"
       d="m 25.064313,810.84306 c -0.476382,0.0312 2.772359,-0.70679 2.076615,-0.53873 -49.444943,11.94372 37.85334,-9.08963 -9.555748,2.2837 3.517584,-0.91373 7.055473,-1.76625 10.481143,-2.93698 2.490986,-0.84789 4.838636,-1.9804 7.10793,-3.22784 1.763992,-0.92051 3.356863,-2.04996 4.944062,-3.19479 1.53526,-1.1409 3.202842,-2.12552 4.777065,-3.22039 2.007281,-1.36354 3.69083,-3.08 5.450467,-4.69056 2.573934,-2.36265 5.165623,-4.7094 7.741472,-7.07039 2.118516,-1.99176 4.35071,-3.88334 6.437947,-5.90173 1.752678,-1.99699 3.820892,-3.72713 5.753942,-5.57412 2.211705,-1.95585 4.458374,-3.86311 6.345142,-6.08715 1.768023,-2.2921 3.26908,-4.73208 4.676379,-7.21505 1.292064,-2.27017 2.882095,-4.38144 4.421233,-6.51689 1.494955,-2.00762 3.065481,-3.96503 4.763947,-5.83607 1.474286,-1.7191 3.307703,-3.08789 5.288402,-4.29859 6.880839,-3.15699 14.678529,-5.11544 22.315359,-5.79829 2.86242,-0.10343 5.74493,-0.27715 8.59792,0.002 2.90282,0.29773 5.75325,1.00391 8.51019,1.86511 2.75174,0.63059 5.38617,1.59696 8.14441,2.20105 3.16025,0.86338 6.29135,1.88049 9.33478,3.04299 2.7507,1.12229 5.53513,2.15931 8.27916,3.29116 1.81267,0.47379 3.15274,1.67579 4.93865,2.19476 1.61032,0.64549 2.92025,1.74922 4.39316,2.60131 1.90952,1.33063 3.90699,2.56651 5.76752,3.95164 0.42637,0.30258 0.83487,0.62688 1.2791,0.90774 0.75651,0.4783 2.01659,1.07899 2.77867,1.54609 1.39925,0.85765 2.66282,1.87844 3.91515,2.89832 2.66797,2.14987 5.02968,4.5722 7.56251,6.84511 2.51047,2.04086 4.48394,4.4975 6.41809,6.9749 2.36465,2.84668 4.5547,5.80288 6.58091,8.85354 2.33109,3.48246 4.89618,6.8343 7.18591,10.33804 2.38841,3.87722 4.52292,7.88074 6.62956,11.88814 2.28725,3.72311 4.32626,7.53513 6.18138,11.44662 2.00366,3.72192 3.46384,7.60901 4.70048,11.58457 1.18924,4.81483 2.49421,9.59591 4.16847,14.29306 1.46258,3.95737 3.48213,7.71435 5.2414,11.56528 1.76724,4.29215 3.91839,8.44036 5.93745,12.6374 1.88293,4.16866 4.35462,8.05632 7.07969,11.81263 2.34121,3.29225 4.76867,6.52416 7.69144,9.41815 2.5015,1.8724 4.55212,4.13856 6.84917,6.20025 2.35364,2.30734 5.12427,4.16093 7.99429,5.90408 3.605,2.20731 7.46919,3.95343 11.36875,5.68069 3.44005,1.11029 6.63843,2.7071 9.96077,4.04972 3.21539,1.17218 6.5478,2.08367 9.88646,2.92776 2.31153,0.77811 4.70677,1.25275 7.02908,1.98492 1.03864,0.54653 2.23255,0.86302 3.25565,1.43064 0.60073,0.33327 1.13301,0.7589 1.72027,1.11117 1.88945,1.12142 3.71249,2.31864 5.58877,3.45622 0.99712,0.77114 0.50006,0.42056 1.48338,1.06068 0,0 -16.04155,4.91979 -16.04155,4.91979 l 0,0 c -0.94109,-0.68561 -0.46756,-0.34696 -1.42057,-1.01598 -1.81337,-1.20196 -3.71175,-2.2791 -5.57897,-3.41085 -1.52035,-0.89722 -3.16252,-1.6109 -4.86718,-2.17803 -2.24812,-0.71319 -4.57108,-1.23013 -6.80915,-1.97566 -3.36736,-0.9305 -6.75505,-1.84581 -9.9764,-3.1438 -3.25593,-1.43545 -6.53096,-2.8212 -9.85732,-4.12002 -3.92879,-1.77924 -7.80118,-3.64026 -11.44716,-5.86956 -2.95839,-1.8177 -5.82241,-3.74239 -8.24932,-6.138 -2.26736,-2.10142 -4.38507,-4.32552 -6.78137,-6.31277 -2.84406,-3.02038 -5.25486,-6.33208 -7.61865,-9.66864 -2.72957,-3.84291 -5.23374,-7.80753 -7.11678,-12.05752 -2.0351,-4.20179 -4.18482,-8.3592 -6.01531,-12.63908 -1.82754,-3.87065 -3.81293,-7.69076 -5.20563,-11.71533 -1.62064,-4.72097 -2.92081,-9.51317 -4.18719,-14.32025 -1.31955,-3.8927 -2.82583,-7.70465 -4.75253,-11.39146 -1.81757,-3.8983 -3.83116,-7.69734 -6.07967,-11.41058 -2.07191,-3.97375 -4.24367,-7.91014 -6.64091,-11.73282 -2.33912,-3.47545 -4.8457,-6.8576 -7.20655,-10.32157 -2.05731,-3.01034 -4.32616,-5.8946 -6.68419,-8.71895 -1.884,-2.41172 -3.91673,-4.71521 -6.3077,-6.74071 -2.47604,-2.2804 -4.85606,-4.64968 -7.5409,-6.73718 -2.53707,-1.92685 -5.32177,-3.49306 -7.99008,-5.25982 -1.94307,-1.28931 -3.8988,-2.56525 -5.8783,-3.80809 -1.36298,-0.8732 -2.73088,-1.77617 -4.31098,-2.30478 -1.63536,-0.74802 -3.1292,-1.72893 -4.87111,-2.2917 -2.66254,-1.17461 -5.41728,-2.1657 -8.12307,-3.25519 -3.0458,-1.07804 -6.12899,-2.11161 -9.29941,-2.84921 -2.74627,-0.71495 -5.46177,-1.52771 -8.20052,-2.26557 -2.72706,-0.73191 -5.49531,-1.40217 -8.35224,-1.52797 -2.84501,-0.0779 -5.71223,-0.0263 -8.53316,0.33912 -6.243693,1.17638 -0.95252,0.1996 13.97609,-3.46689 0.35263,-0.0866 -0.71351,0.14433 -1.06561,0.23269 -1.02367,0.25692 -1.99164,0.63852 -2.98491,0.97313 -2.04682,0.96702 -3.93891,2.21828 -5.44558,3.81077 -1.72818,1.79853 -3.30148,3.69347 -4.78164,5.66334 -1.56861,2.08624 -3.152186,4.16396 -4.513639,6.36882 -1.479227,2.51349 -2.904118,5.05125 -4.635355,7.43668 -1.791914,2.33424 -3.934928,4.39105 -6.298797,6.26411 -1.89871,1.87502 -3.989556,3.56833 -5.755463,5.55029 -2.033571,2.10971 -4.330353,3.99625 -6.502606,5.98784 -2.593383,2.32667 -5.170277,4.66791 -7.705815,7.04615 -1.740198,1.6441 -3.45493,3.31035 -5.219406,4.93321 -1.644275,0.98695 -3.152104,2.14689 -4.818226,3.1138 -1.565961,1.22603 -3.158247,2.45323 -4.966512,3.37521 -2.241539,1.41491 -4.675212,2.6093 -7.210875,3.53382 -3.387876,1.33233 -6.946014,2.21058 -10.50608,3.08629 -5.909943,1.45327 -11.818261,2.91194 -17.72983,4.35982 -15.3521594,3.76008 53.119919,-12.97637 -4.699295,1.149 -1.329461,0.32479 -0.981442,0.24267 -2.2701795,0.4702 0,0 15.5996515,-6.10825 15.5996515,-6.10825 z"
       inkscape:connector-curvature="0" />
    <path
       style="fill:#a7d64c;fill-opacity:1;stroke:#552200;stroke-width:0;stroke-miterlimit:4;stroke-opacity:1;stroke-dasharray:none"
       id="path3077"
       d="m 277.12952,853.29203 c 6.05603,-0.56404 21.14364,-4.78445 -4.03784,1.58505 3.81637,-1.12617 7.46241,-2.68936 11.07662,-4.30245 2.90249,-1.34617 5.7081,-2.89397 8.44845,-4.52378 2.01866,-1.28507 3.99977,-2.61876 5.92284,-4.03277 2.11205,-1.35091 4.22011,-2.70791 6.32282,-4.07287 2.34568,-1.53565 4.67244,-3.09271 7.15575,-4.41667 2.52082,-1.22486 5.11879,-2.30067 7.79245,-3.17471 0.46423,-0.13159 0.92564,-0.27292 1.39275,-0.39477 54.12612,-14.12008 -35.13999,9.16668 19.15657,-4.96515 4.50045,-1.17133 -9.00451,2.32999 -13.51302,3.47226 -0.52096,0.13199 1.03315,-0.29416 1.54973,-0.44124 3.01623,-0.87871 6.04467,-1.71214 9.05744,-2.6035 3.19615,-0.82146 6.28306,-1.93977 9.34066,-3.14304 3.21744,-1.23211 6.35934,-2.63261 9.55318,-3.91882 4.13305,-1.7 8.32156,-3.27053 12.47492,-4.92325 3.84747,-1.6295 7.67029,-3.31231 11.52926,-4.91659 3.31985,-1.3045 6.5711,-2.76424 9.94844,-3.92825 7.88865,-2.14922 15.70254,-4.91049 23.90021,-5.57622 3.20909,-0.33572 6.39461,-0.004 9.59032,0.25988 3.36052,0.21063 6.69047,0.7983 9.95171,1.59363 3.20231,0.71319 6.3584,1.62811 9.5146,2.51666 3.04727,0.97333 6.04273,2.07293 9.0179,3.23541 3.34036,1.15543 6.72063,2.20968 10.17246,3.01191 2.20451,0.36846 4.32579,1.03164 6.45158,1.66537 1.93867,0.52089 3.87494,1.11021 5.72528,1.88466 1.66375,1.00993 3.47289,1.58882 5.40661,1.85121 1.56884,-0.0414 2.79125,0.88295 4.19103,1.36963 1.65498,0.44581 3.29345,0.86512 5.01175,1.05915 0,0 -14.76032,5.62942 -14.76032,5.62942 l 0,0 c -1.77149,-0.32595 -3.51632,-0.7933 -5.21194,-1.3828 -1.288,-0.58491 -2.59536,-0.95677 -4.0212,-1.10678 -1.92497,-0.47625 -3.68269,-1.2953 -5.46487,-2.12808 -1.88577,-0.65922 -3.80034,-1.22879 -5.72508,-1.7729 -2.05381,-0.66034 -4.16895,-1.12396 -6.26373,-1.64635 -3.42905,-0.94226 -6.83061,-1.98397 -10.16394,-3.20635 -2.98312,-1.10281 -5.98968,-2.1437 -9.03687,-3.07209 -3.147,-0.84963 -6.2567,-1.84054 -9.46579,-2.45871 -3.24876,-0.68433 -6.53101,-1.21895 -9.85762,-1.38713 -3.17561,-0.24459 -6.35392,-0.37323 -9.5264,0.0251 -1.33425,0.16805 -1.54283,0.17333 -2.85774,0.42185 -0.47326,0.0894 -1.87914,0.41802 -1.41424,0.2944 24.38823,-6.48481 15.73235,-3.98288 10.39477,-2.73925 -3.44738,0.99583 -6.67211,2.51101 -9.99977,3.81545 -3.92583,1.52836 -7.7726,3.24694 -11.62757,4.93015 -4.11532,1.65944 -8.27929,3.20437 -12.38156,4.89389 -3.14806,1.34373 -6.32374,2.62846 -9.48423,3.94831 -3.07667,1.1697 -6.09251,2.52038 -9.32521,3.26452 -3.00567,0.90713 -6.01085,1.80152 -9.04945,2.5959 -6.84665,2.2088 -1.75598,0.59956 -18.0026,4.75537 -4.53226,1.15933 18.10386,-4.7271 13.58415,-3.52329 -54.57321,14.53533 9.59654,-2.79552 -4.10469,1.11406 -2.71217,0.67127 -5.27554,1.76498 -7.81045,2.89861 -2.56232,1.15442 -4.89639,2.67143 -7.20066,4.24344 -2.08748,1.32941 -4.09762,2.77192 -6.24688,4.00921 -2.03758,1.32718 -3.9229,2.87338 -6.01525,4.13085 -2.72935,1.72816 -5.60945,3.24423 -8.48789,4.72225 -3.65706,1.68816 -7.36457,3.26829 -11.20474,4.53813 -8.63488,2.27081 -17.13841,4.92091 -26.0088,6.13035 0,0 14.6361,-6.10825 14.6361,-6.10825 z"
       inkscape:connector-curvature="0" />
    <path
       style="fill:#a7d64c;fill-opacity:1;stroke:#552200;stroke-width:0;stroke-miterlimit:4;stroke-opacity:1;stroke-dasharray:none"
       id="path3079"
       d="m 355.58255,902.29311 c 6.35219,-0.87362 12.73944,-1.333 19.0991,-2.17475 13.1908,-1.8142 26.36798,-3.70359 39.49502,-5.97969 7.74311,-1.40902 15.41158,-3.25533 23.01835,-5.32416 1.63941,-0.44587 6.55384,-1.79307 4.90137,-1.40441 -2.80599,0.65996 -5.57604,1.47921 -8.36405,2.21882 6.97249,-2.3243 13.74774,-5.27613 20.21146,-8.87544 3.72667,-2.08386 7.21813,-4.56293 10.62967,-7.16541 2.56285,-1.87869 4.93528,-4.02207 7.33639,-6.11877 2.41641,-2.0667 4.74851,-4.23688 7.19744,-6.26143 2.11011,-1.67531 4.45827,-2.97056 6.73426,-4.37074 2.09219,-1.30364 4.32615,-2.30912 6.54675,-3.33597 2.34403,-1.10036 4.73514,-2.0843 7.09546,-3.14393 6.44127,-3.09364 13.50993,-4.42969 20.30612,-6.3073 2.06298,-0.0998 4.07001,-0.4709 6.10261,-0.81522 1.94078,-0.28199 3.9071,-0.28897 5.86291,-0.30688 2.58172,-0.1188 5.13349,0.33809 7.70059,0.55566 2.91163,0.48104 5.83684,0.79477 8.74865,1.26945 2.5395,0.35965 5.08345,0.51344 7.61722,0.91123 2.41565,0.21845 4.79964,0.63725 7.20433,0.9508 2.5293,0.22517 5.04572,0.32675 7.55942,0.69739 2.05131,0.32244 4.12169,0.42821 6.19233,0.48156 2.13308,-0.0837 4.22373,0.38139 6.33872,0.59969 2.07998,0.0167 4.10424,0.4151 6.15756,0.69749 2.56805,0.4417 5.18327,0.64832 7.74127,1.15501 2.29584,0.4218 4.61252,0.83336 6.85246,1.52084 2.0138,0.60522 4.09409,0.79556 6.17575,0.90226 1.89314,0.14669 3.7528,0.56134 5.65447,0.71433 1.98085,0.48867 3.99344,0.73648 6.02008,0.87248 1.72064,0.0948 3.44418,0.0909 5.1666,0.0894 1.5415,0.0805 3.12251,-0.2095 4.62973,0.17928 0.64178,0.19917 1.30004,0.31367 1.95984,0.41944 0,0 -13.53691,5.61691 -13.53691,5.61691 l 0,0 c -0.64226,-0.13399 -1.28207,-0.28936 -1.93382,-0.36471 -1.51027,-0.0123 -3.02063,0.006 -4.53092,-0.008 -1.72272,-0.0179 -3.44702,-0.0517 -5.16368,-0.21856 -2.01852,-0.21417 -4.00556,-0.61031 -6.01463,-0.89171 -1.88514,-0.21514 -3.74851,-0.61311 -5.64754,-0.6786 -2.11835,-0.19886 -4.21323,-0.54676 -6.25994,-1.17329 -2.23656,-0.54312 -4.47979,-1.05623 -6.75094,-1.41478 -2.58771,-0.39387 -5.1815,-0.74985 -7.77588,-1.09089 -2.0414,-0.30215 -4.08733,-0.474 -6.14099,-0.65868 -2.10455,-0.2578 -4.20221,-0.53538 -6.32719,-0.48956 -2.07371,-0.10735 -4.13941,-0.30138 -6.19277,-0.63327 -2.50428,-0.31686 -5.03051,-0.34994 -7.53159,-0.70901 -2.40959,-0.34561 -4.82423,-0.6223 -7.23462,-0.9582 -2.51753,-0.36087 -5.06181,-0.47384 -7.56556,-0.95032 -2.89796,-0.46503 -5.81442,-0.79015 -8.72311,-1.16963 -2.56713,-0.2401 -5.1319,-0.56005 -7.71459,-0.37851 -1.95114,0.0638 -3.90666,0.14882 -5.8308,0.52531 -2.00525,0.34463 -4.03578,0.44168 -6.02799,0.86842 24.29099,-6.90593 12.45513,-3.98207 7.1864,-1.6356 -2.31153,1.15557 -4.72496,2.06964 -7.07278,3.14068 -2.1918,1.06778 -4.45727,1.95296 -6.56937,3.19739 -2.30505,1.33735 -4.58446,2.72922 -6.82936,4.17753 -2.5029,1.95316 -4.82866,4.12529 -7.22806,6.21378 -2.44216,2.07903 -4.76018,4.33519 -7.35156,6.21072 -3.51472,2.68398 -7.09393,5.27366 -10.93978,7.41311 -6.5781,3.7504 -13.51689,6.7701 -20.62572,9.2166 -14.81847,4.325 -29.62132,8.90331 -44.83728,11.45404 -13.25025,2.23537 -26.54503,4.13609 -39.83547,6.08356 -6.74892,0.92556 -13.53887,1.5166 -20.25036,2.71947 0,0 13.36493,-6.0653 13.36493,-6.0653 z"
       inkscape:connector-curvature="0" />
    <path
       sodipodi:type="arc"
       style="fill:#9e9eff;fill-opacity:1;stroke:#01ff00;stroke-width:0;stroke-miterlimit:4;stroke-opacity:1;stroke-dasharray:none"
       id="path3823"
       sodipodi:cx="157.5"
       sodipodi:cy="486.5"
       sodipodi:rx="75.5"
       sodipodi:ry="38.5"
       d="M 233,486.5 C 233,507.76296 199.1975,525 157.5,525 115.8025,525 82,507.76296 82,486.5 82,465.23704 115.8025,448 157.5,448 c 41.6975,0 75.5,17.23704 75.5,38.5 z"
       transform="matrix(1,0,0,0.81818182,-45,345.81673)" />
    <rect
       style="fill:#cb5c00;fill-opacity:1;stroke:#019300;stroke-width:0;stroke-miterlimit:4;stroke-opacity:1;stroke-dasharray:none"
       id="rect3853"
       width="5.505837"
       height="26.483074"
       x="325.20752"
       y="865.06274" />
    <path
       sodipodi:type="star"
       style="fill:#188700;fill-opacity:1;stroke:#552200;stroke-width:0;stroke-miterlimit:4;stroke-opacity:1;stroke-dasharray:none"
       id="path3851"
       sodipodi:sides="3"
       sodipodi:cx="390.20407"
       sodipodi:cy="28.571428"
       sodipodi:r1="38.781956"
       sodipodi:r2="19.253023"
       sodipodi:arg1="0.5295896"
       sodipodi:arg2="1.5767872"
       inkscape:flatsided="true"
       inkscape:rounded="0"
       inkscape:randomized="0"
       d="m 423.67346,48.163266 -67.17111,-0.402415 33.93406,-57.970682 z"
       transform="matrix(0.40450592,0,0,1.0667135,169.84606,818.7576)"
       inkscape:transform-center-x="-1.8161496"
       inkscape:transform-center-y="-23.989603" />
    <rect
       style="fill:#cb5c00;fill-opacity:1;stroke:#019300;stroke-width:0;stroke-miterlimit:4;stroke-opacity:1;stroke-dasharray:none"
       id="rect3853-3"
       width="5.505837"
       height="26.483074"
       x="368.99716"
       y="829.35138" />
    <path
       sodipodi:type="star"
       style="fill:#188700;fill-opacity:1;stroke:#552200;stroke-width:0;stroke-miterlimit:4;stroke-opacity:1;stroke-dasharray:none"
       id="path3851-6"
       sodipodi:sides="3"
       sodipodi:cx="390.20407"
       sodipodi:cy="28.571428"
       sodipodi:r1="38.781956"
       sodipodi:r2="19.253023"
       sodipodi:arg1="0.5295896"
       sodipodi:arg2="1.5767872"
       inkscape:flatsided="true"
       inkscape:rounded="0"
       inkscape:randomized="0"
       d="m 423.67346,48.163266 -67.17111,-0.402415 33.93406,-57.970682 z"
       transform="matrix(0.40450592,0,0,1.0667135,213.63571,783.04621)"
       inkscape:transform-center-x="-1.8161496"
       inkscape:transform-center-y="-23.989603" />
    <rect
       style="fill:#cb5c00;fill-opacity:1;stroke:#019300;stroke-width:0;stroke-miterlimit:4;stroke-opacity:1;stroke-dasharray:none"
       id="rect3853-8"
       width="5.505837"
       height="26.483074"
       x="449.81348"
       y="847.31055" />
    <path
       sodipodi:type="star"
       style="fill:#188700;fill-opacity:1;stroke:#552200;stroke-width:0;stroke-miterlimit:4;stroke-opacity:1;stroke-dasharray:none"
       id="path3851-9"
       sodipodi:sides="3"
       sodipodi:cx="390.20407"
       sodipodi:cy="28.571428"
       sodipodi:r1="38.781956"
       sodipodi:r2="19.253023"
       sodipodi:arg1="0.5295896"
       sodipodi:arg2="1.5767872"
       inkscape:flatsided="true"
       inkscape:rounded="0"
       inkscape:randomized="0"
       d="m 423.67346,48.163266 -67.17111,-0.402415 33.93406,-57.970682 z"
       transform="matrix(0.40450592,0,0,1.0667135,294.45204,799.37274)"
       inkscape:transform-center-x="-1.8161496"
       inkscape:transform-center-y="-23.989603" />
    <rect
       style="fill:#cb5c00;fill-opacity:1;stroke:#019300;stroke-width:0;stroke-miterlimit:4;stroke-opacity:1;stroke-dasharray:none"
       id="rect3853-5"
       width="5.505837"
       height="26.483074"
       x="408.18085"
       y="851.39215" />
    <path
       sodipodi:type="star"
       style="fill:#188700;fill-opacity:1;stroke:#552200;stroke-width:0;stroke-miterlimit:4;stroke-opacity:1;stroke-dasharray:none"
       id="path3851-5"
       sodipodi:sides="3"
       sodipodi:cx="390.20407"
       sodipodi:cy="28.571428"
       sodipodi:r1="38.781956"
       sodipodi:r2="19.253023"
       sodipodi:arg1="0.5295896"
       sodipodi:arg2="1.5767872"
       inkscape:flatsided="true"
       inkscape:rounded="0"
       inkscape:randomized="0"
       d="m 423.67346,48.163266 -67.17111,-0.402415 33.93406,-57.970682 z"
       transform="matrix(0.40450592,0,0,1.0667135,252.81938,805.08702)"
       inkscape:transform-center-x="-1.8161496"
       inkscape:transform-center-y="-23.989603" />
    <path
       style="fill:none;stroke:#000000;stroke-width:0.80000001;stroke-linecap:butt;stroke-linejoin:miter;stroke-miterlimit:4;stroke-opacity:1;stroke-dasharray:none"
       d="m 270.12614,1134.36 1.89111,-0.5043 0.39309,2.9765 2.05623,-1.8081 1.7452,2.5338 1.2057,-2.1647"
       id="path3998"
       inkscape:connector-curvature="0"
       sodipodi:nodetypes="cccccc" />
    <path
       style="fill:none;stroke:#000000;stroke-width:0.80000001;stroke-linecap:butt;stroke-linejoin:miter;stroke-miterlimit:4;stroke-opacity:1;stroke-dasharray:none"
       d="m 321.34319,1100.1569 2.08975,-2.0898 0.69659,3.2507 2.08975,-1.8575 1.85755,2.0897 1.39318,-2.7863"
       id="path4000"
       inkscape:connector-curvature="0"
       sodipodi:nodetypes="cccccc" />
    <path
       style="fill:none;stroke:#000000;stroke-width:0.80000001;stroke-linecap:butt;stroke-linejoin:miter;stroke-miterlimit:4;stroke-opacity:1;stroke-dasharray:none"
       d="m 383.24136,1096.0575 -2.55414,-2.3219 -0.69659,4.6439 -1.39317,-2.5542 -1.85756,2.7864 -1.39317,-1.6254"
       id="path4002"
       inkscape:connector-curvature="0" />
    <g
       id="g4174"
       transform="translate(-68.571428,246.53061)">
      <path
         inkscape:connector-curvature="0"
         id="path4166"
         d="m 195.10204,878.1581 4.29458,4.40817 4.68501,-4.40817 0,-9.91836 -8.58917,-0.36735 z"
         style="fill:#676767;fill-opacity:1;stroke:#000000;stroke-opacity:1" />
      <path
         transform="matrix(1.0996,0,0,1,-18.781715,652.36218)"
         d="m 208.97959,206.93878 c 0,6.53725 -4.56852,11.83674 -10.20408,11.83674 -5.63556,0 -10.20408,-5.29949 -10.20408,-11.83674 0,-6.53725 4.56852,-11.83673 10.20408,-11.83673 5.63556,0 10.20408,5.29948 10.20408,11.83673 z"
         sodipodi:ry="11.836735"
         sodipodi:rx="10.204082"
         sodipodi:cy="206.93878"
         sodipodi:cx="198.77551"
         id="path4162"
         style="fill:#f4ff28;fill-opacity:1;stroke:#000000;stroke-width:0.80000001;stroke-miterlimit:4;stroke-opacity:1;stroke-dasharray:none"
         sodipodi:type="arc" />
      <path
         transform="translate(0,652.36218)"
         inkscape:connector-curvature="0"
         id="path4168"
         d="m 177.95918,182.04082 10.61225,10.61224 z"
         style="fill:none;stroke:#000000;stroke-width:1px;stroke-linecap:butt;stroke-linejoin:miter;stroke-opacity:1" />
      <path
         transform="translate(0,652.36218)"
         inkscape:connector-curvature="0"
         id="path4170"
         d="m 202.44898,175.5102 0,14.69388"
         style="fill:none;stroke:#000000;stroke-width:1px;stroke-linecap:butt;stroke-linejoin:miter;stroke-opacity:1" />
      <path
         transform="translate(0,652.36218)"
         inkscape:connector-curvature="0"
         id="path4172"
         d="m 222.85714,184.4898 -9.79592,10.61224"
         style="fill:none;stroke:#000000;stroke-width:1px;stroke-linecap:butt;stroke-linejoin:miter;stroke-opacity:1" />
    </g>
    <g
       id="g4212"
       transform="translate(-84.89796,358.36735)">
      <rect
         transform="matrix(0.95973153,-0.28091883,0.24711525,0.9689861,0,0)"
         y="843.29877"
         x="-142.80038"
         height="82.626579"
         width="32.23864"
         id="rect4200"
         style="fill:#ffffff;fill-opacity:1;stroke:#000000;stroke-width:4.00122881;stroke-miterlimit:4;stroke-opacity:1;stroke-dasharray:none" />
      <rect
         transform="matrix(0.95973153,-0.28091883,0.24711525,0.9689861,0,0)"
         y="816.45825"
         x="-134.86473"
         height="26.840481"
         width="15.871331"
         id="rect4202"
         style="fill:#ffffff;fill-opacity:1;stroke:#000000;stroke-width:4.00122881;stroke-miterlimit:4;stroke-opacity:1;stroke-dasharray:none" />
      <path
         transform="translate(0,652.36218)"
         inkscape:connector-curvature="0"
         id="path4206"
         d="M 95.510204,179.59184 219.59184,62.040816"
         style="fill:none;stroke:#000000;stroke-width:6;stroke-linecap:butt;stroke-linejoin:miter;stroke-miterlimit:4;stroke-opacity:1;stroke-dasharray:12, 6;stroke-dashoffset:0" />
      <path
         inkscape:connector-curvature="0"
         id="path4208"
         d="M 99.591837,834.11728 265.30612,774.52545"
         style="fill:none;stroke:#000000;stroke-width:6;stroke-linecap:butt;stroke-linejoin:miter;stroke-miterlimit:4;stroke-opacity:1;stroke-dasharray:12, 6;stroke-dashoffset:0" />
      <path
         inkscape:connector-curvature="0"
         id="path4210"
         d="m 99.22449,837.46422 147.7551,2.44898"
         style="fill:none;stroke:#000000;stroke-width:6;stroke-linecap:butt;stroke-linejoin:miter;stroke-miterlimit:4;stroke-opacity:1;stroke-dasharray:12, 6;stroke-dashoffset:0" />
    </g>
  </g>
</svg>
